<svg width="190" height="143" viewBox="0 0 190 143" fill="none" xmlns="http://www.w3.org/2000/svg">
<path fill-rule="evenodd" clip-rule="evenodd" d="M69.0116 0H120.868L137.158 27.0682H69.3081V27.0696C45.613 27.0696 26.4036 46.7636 26.4036 71.0563C26.4036 95.1216 45.2537 114.674 68.6438 115.038H156.29L129.892 71.0591H162.896L189.295 115.038H189.598V142.066H69.3081V142.113C68.4645 142.113 67.6244 142.097 66.7881 142.066H63.7219V141.885C28.0566 138.969 0 108.371 0 71.0563C0 31.9147 30.8705 0.164412 69.0116 0.000640345V0ZM79.2102 51.0163C79.2102 58.4913 73.2996 64.551 66.0084 64.551C58.7173 64.551 52.8066 58.4913 52.8066 51.0163C52.8066 43.5412 58.7173 37.4814 66.0084 37.4814C73.2996 37.4814 79.2102 43.5412 79.2102 51.0163ZM66.0084 102.033C73.2996 102.033 79.2102 95.9732 79.2102 88.4981C79.2102 81.0231 73.2996 74.9634 66.0084 74.9634C58.7173 74.9634 52.8066 81.0231 52.8066 88.4981C52.8066 95.9732 58.7173 102.033 66.0084 102.033Z" fill="#39375A"/>
</svg>
